<?xml version="1.0" encoding="UTF-8"?>
<svg id="Layer_1" xmlns="http://www.w3.org/2000/svg" version="1.1" viewBox="0 0 595.28 411.25">
  <!-- Generator: Adobe Illustrator 29.1.0, SVG Export Plug-In . SVG Version: 2.1.0 Build 142)  -->
  <defs>
    <style>
      .st0 {
        fill: #febe29;
      }

      .st1 {
        fill: #f15b22;
      }

      .st2 {
        fill: #4dbe9e;
      }
    </style>
  </defs>
  <g>
    <path class="st0" d="M169.22,240.06l-4.26-13.83c-1.01-3.25-4.42-5.19-7.95-4.51-7.09,1.35-13.79-1.97-15.56-7.74-1.78-5.77,1.89-12.28,8.52-15.16,3.3-1.43,5.03-4.96,4.03-8.21l-2.77-9.03c-2-6.5-9.41-9.99-16.53-7.81l-9.88,3.04c-.58.19-1.22-.03-1.55-.53-5.16-7.8-15.84-11.3-25.99-8.18-10.04,3.1-16.86,11.83-16.91,21.08,0,.79-.51,1.49-1.26,1.71l-11.56,3.56c-7.1,2.18-11.27,9.25-9.27,15.74l18,58.49c2,6.49,9.41,9.99,16.53,7.8l13.52-4.15c3.34-1.03,5.48-4.31,4.97-7.61-.94-6.05,2.1-13.61,9.11-15.77,7-2.16,15.25,1.39,17.87,6.92,1.44,3.03,6.17,4.74,9.52,3.7l12.15-3.74c7.11-2.19,11.28-9.25,9.28-15.75ZM98.27,178.82c6.66-2.51,14.1.85,16.62,7.52,2.51,6.66-.86,14.1-7.52,16.61-6.66,2.52-14.1-.85-16.61-7.51-2.52-6.66.85-14.1,7.51-16.62ZM73.54,213.28c-3.08-2.5-3.55-7.01-1.07-10.09,2.48-3.08,6.99-3.55,10.06-1.09.23.19,9.97,7.67,21.87,6.09,8.41-1.13,16.24-6.49,23.3-15.99,2.37-3.17,6.86-3.83,10.04-1.47,3.18,2.37,3.84,6.86,1.47,10.04-9.18,12.34-19.87,19.57-31.8,21.48-.45.07-.91.14-1.36.2-18.12,2.29-31.94-8.7-32.52-9.17ZM154.07,246.98c-.93,1.28-2.2,2.15-3.6,2.58-2.04.63-4.33.32-6.19-1.02-9.62-7-17.92-17.4-32.32-9.69-8.65,4.63-13.78,20.08-16.23,21.63-3.26,2.07-7.59,1.09-9.66-2.17-3.03-4.78,2.95-17.92,12.96-27.31,8.95-8.39,31.27-16.5,53.47,6.21,2.7,2.76,3.83,6.65,1.55,9.77Z"/>
    <path class="st0" d="M95.94,164.04c-2.27.7-4.68-.58-5.37-2.84l-5.58-18.13c-.7-2.27.58-4.68,2.84-5.37,2.27-.7,4.68.58,5.37,2.84l5.58,18.13c.7,2.27-.58,4.68-2.84,5.37Z"/>
    <path class="st0" d="M69.29,185.81c-1.05.32-2.23.25-3.28-.31l-16.77-8.88c-2.1-1.11-2.9-3.71-1.79-5.81,1.11-2.1,3.71-2.9,5.81-1.79l16.77,8.88c2.1,1.11,2.9,3.71,1.79,5.81-.56,1.05-1.48,1.77-2.54,2.1Z"/>
    <path class="st0" d="M130.21,167.06c-1.05.32-2.23.25-3.28-.31-2.1-1.11-2.9-3.71-1.79-5.81l8.88-16.77c1.11-2.1,3.71-2.9,5.81-1.79,2.1,1.11,2.9,3.71,1.79,5.81l-8.88,16.77c-.56,1.05-1.48,1.77-2.54,2.1Z"/>
  </g>
  <g>
    <g>
      <path class="st1" d="M195.9,179.28c0-2.99,2.43-5.42,5.42-5.42h18.39c7.78,0,15.09,5.06,15.09,14.78,0,4.51-1.56,7.62-4.05,9.65,3.5,2.18,5.91,5.84,5.91,11.13,0,9.65-8.01,15.02-15.79,15.02h-19.56c-2.99,0-5.42-2.43-5.42-5.42v-39.74ZM217.46,193.23c2.5,0,4.13-1.41,4.12-3.91,0-2.13-1.86-3.79-3.98-3.79h-8.85s0,7.7,0,7.7h8.71ZM218.78,212.76c2.96,0,4.67-2.02,4.67-4.51s-1.87-4.51-4.67-4.51h-10.04v9.03h10.04Z"/>
      <path class="st1" d="M242.9,176.01c0-1.19.96-2.15,2.15-2.15h22.67c7.47,0,16.03,5.52,16.03,17.43,0,7.21-3.15,12.11-7.31,14.88-.94.62-1.19,1.88-.62,2.85l7.18,12.17c.85,1.43-.19,3.24-1.85,3.24h-9.79c-.76,0-1.47-.4-1.85-1.06l-7.93-13.52c-.39-.66-1.09-1.06-1.85-1.06h-1.83c-1.19,0-2.15.96-2.15,2.15v11.34c0,1.19-.96,2.15-2.15,2.15h-8.54c-1.19,0-2.15-.96-2.15-2.15v-46.27ZM265.54,196.34c2.65,0,5.37-1.56,5.37-5.06s-2.72-4.98-5.37-4.98h-7.65c-1.19,0-2.15.96-2.15,2.15v5.74c0,1.19.96,2.15,2.15,2.15h7.65Z"/>
      <path class="st1" d="M291.14,206.38v-29.01c0-1.94,1.57-3.51,3.51-3.51h5.82c1.94,0,3.51,1.57,3.51,3.51v27.53c0,6.15,3.81,7.7,7.16,7.7s7.16-1.56,7.16-7.7v-27.53c0-1.94,1.57-3.51,3.51-3.51h5.82c1.94,0,3.51,1.57,3.51,3.51v29.01c0,9.8-7,18.67-19.99,18.67s-19.99-8.87-19.99-18.67Z"/>
      <path class="st1" d="M341.39,173.86h7.88c1.37,0,2.48,1.11,2.48,2.48v14.1c0,1.37,1.11,2.48,2.48,2.48h12.7c1.37,0,2.48-1.11,2.48-2.48v-14.1c0-1.37,1.11-2.48,2.48-2.48h7.88c1.37,0,2.48,1.11,2.48,2.48v45.61c0,1.37-1.11,2.48-2.48,2.48h-7.88c-1.37,0-2.48-1.11-2.48-2.48v-14.1c0-1.37-1.11-2.48-2.48-2.48h-12.7c-1.37,0-2.48,1.11-2.48,2.48v14.1c0,1.37-1.11,2.48-2.48,2.48h-7.88c-1.37,0-2.48-1.11-2.48-2.48v-45.61c0-1.37,1.11-2.48,2.48-2.48Z"/>
    </g>
    <g>
      <path class="st2" d="M392.63,200.61c-1.88-17,12.97-31.59,29.87-28.95,5.61.88,10.32,3.41,13.82,7.15,1.28,1.37,1.03,3.56-.46,4.69l-5.36,4.02c-1.2.9-2.86.85-3.99-.13-2.89-2.5-7.59-4.35-12.9-2.43-5.25,1.9-8.47,7.13-8.32,12.71.19,7.39,5.28,12.63,12.75,12.63,3.39,0,6.32-1.66,8.37-3.46,1.16-1.02,2.87-1.09,4.09-.14l5.46,4.26c1.45,1.13,1.68,3.29.42,4.64-4.4,4.73-10.72,7.54-18.33,7.54-13.86,0-23.95-9.28-25.41-22.53Z"/>
      <path class="st2" d="M441.23,204.62c0-10.89,7.16-18.44,16.65-18.44,3.46,0,6.16.99,8.17,2.74.03.03.07,0,.07-.03v-.4c0-.97.79-1.75,1.75-1.75h8.94c.97,0,1.75.79,1.75,1.75v32.28c0,.97-.79,1.75-1.75,1.75h-8.94c-.97,0-1.75-.79-1.75-1.75v-.33s-.04-.06-.07-.03c-2.01,1.68-4.71,2.74-8.17,2.74-9.49,0-16.65-7.86-16.65-18.52ZM466.12,204.32c-.11-3.22-1.95-5.7-4.88-6.32-4.29-.91-8.21,2.77-7.94,7.14.2,3.34,2.34,5.88,5.57,6.27,4.05.49,7.38-3.01,7.24-7.09Z"/>
      <path class="st2" d="M487.49,186.72h10.18c.63,0,1.13.51,1.13,1.13v2.06c0,1.02,1.24,1.52,1.94.79,2.7-2.82,6.08-4.16,9.42-4.46.67-.06,1.24.47,1.24,1.13v9.32c0,.63-.51,1.14-1.14,1.13-3.42-.04-11.46.41-11.46,10.21v13.34c0,.63-.51,1.13-1.13,1.13h-10.18c-.63,0-1.13-.51-1.13-1.13v-33.52c0-.63.51-1.13,1.13-1.13Z"/>
      <path class="st2" d="M514.53,204.62c0-10.66,7.08-18.59,17.97-18.59s17.27,7.94,17.27,18.59h0c0,1.8-1.46,3.27-3.27,3.27h-19.84c.93,3.19,3.35,4.9,6.22,4.9s4.72-.99,5.74-1.85c.62-.52,1.52-.54,2.17-.05l5.69,4.22c.83.62.98,1.83.28,2.59-3.22,3.48-8.13,5.59-13.88,5.59-11.13,0-18.36-8.01-18.36-18.67ZM538.02,200.18c-.78-2.57-2.49-4.43-5.52-4.43-2.8,0-4.67,1.71-5.68,4.43h11.2Z"/>
    </g>
  </g>
  <g>
    <path class="st0" d="M197.69,240.49h2.97v12.24h7.11v2.71h-10.08v-14.95Z"/>
    <path class="st0" d="M209.15,250.15c0-3.15,2.07-5.5,5.27-5.5s5.08,2.35,5.08,5.5v.78h-7.59c.28,1.43,1.31,2.28,2.62,2.28,1.4,0,2.14-.64,2.51-1.13l1.96,1.43c-.92,1.33-2.53,2.16-4.46,2.16-3.24,0-5.38-2.37-5.38-5.52ZM216.81,249.12c-.25-1.24-1.03-2.19-2.39-2.19s-2.19.85-2.46,2.19h4.85Z"/>
    <path class="st0" d="M221.24,250.15c0-3.2,2.12-5.45,5.02-5.45,1.33,0,2.32.48,3.04,1.29v-1.13h2.88v10.58h-2.88v-1.1c-.71.8-1.7,1.29-3.04,1.29-2.9,0-5.02-2.32-5.02-5.47ZM229.3,250.15c0-1.59-1.03-2.76-2.62-2.76s-2.65,1.17-2.65,2.76,1.06,2.76,2.65,2.76,2.62-1.17,2.62-2.76Z"/>
    <path class="st0" d="M234.7,244.86h2.88v1.91c.9-1.45,2.32-2.05,3.73-2.07v2.69c-1.04.02-3.73.18-3.73,3.2v4.85h-2.88v-10.58Z"/>
    <path class="st0" d="M243.14,244.86h2.88v1.01c.81-.87,1.93-1.17,2.97-1.17,1.91,0,4.12,1.04,4.12,4.28v6.46h-2.88v-6.03c0-1.86-1.31-2.3-2.12-2.3s-2.09.44-2.09,2.3v6.03h-2.88v-10.58Z"/>
    <path class="st0" d="M255.63,241.69c0-.99.81-1.52,1.59-1.52s1.59.53,1.59,1.52-.83,1.61-1.59,1.61-1.59-.6-1.59-1.61ZM255.77,244.86h2.9l-.02,10.58h-2.88v-10.58Z"/>
    <path class="st0" d="M261.34,244.86h2.88v1.01c.81-.87,1.93-1.17,2.97-1.17,1.91,0,4.12,1.04,4.12,4.28v6.46h-2.88v-6.03c0-1.86-1.31-2.3-2.12-2.3s-2.09.44-2.09,2.3v6.03h-2.88v-10.58Z"/>
    <path class="st0" d="M274.22,258.04l1.86-1.59c.83.87,1.82,1.08,2.62,1.08.99,0,2.78-.55,2.78-2.83v-.39c-.71.81-1.73,1.31-3.06,1.31-2.9,0-4.99-2.32-4.99-5.47s2.09-5.45,4.99-5.45c1.33,0,2.35.48,3.06,1.31v-1.15h2.88v9.85c0,3.04-2,5.24-5.66,5.24-1.91,0-3.52-.76-4.49-1.91ZM281.49,250.15c0-1.59-1.06-2.76-2.65-2.76s-2.62,1.17-2.62,2.76,1.04,2.76,2.62,2.76,2.65-1.17,2.65-2.76Z"/>
    <path class="st0" d="M291.49,251.51c0-1.63.83-2.88,3.01-4.35,0-.02-.02-.05-.02-.05-1.01-1.24-1.75-2.21-1.75-3.57,0-1.68,1.4-3.27,3.89-3.27s3.89,1.66,3.89,3.31c0,2.19-1.66,3.4-2.88,4.16.76.94,1.75,2.16,2.74,3.36.39-.69.64-1.56.64-2.55v-.21h2.19v.23c0,1.63-.53,3.13-1.4,4.3l2.19,2.67h-2.74c-.25-.32-.6-.71-.97-1.17-1.06.81-2.35,1.27-3.63,1.27-3.34,0-5.15-1.77-5.15-4.14ZM298.92,252.68c-1.03-1.29-2.16-2.71-3.04-3.8-1.7,1.31-1.68,2.16-1.68,2.62,0,.94.76,1.93,2.48,1.93.71,0,1.52-.25,2.23-.76ZM298.21,243.73c0-.94-.71-1.52-1.59-1.52s-1.61.6-1.61,1.52c0,.78.51,1.36,1.2,2.28l.05.07c.99-.62,1.96-1.36,1.96-2.35Z"/>
    <path class="st0" d="M315.14,243.21h-4.49v-2.71h11.94v2.71h-4.46v12.24h-2.99v-12.24Z"/>
    <path class="st0" d="M324.02,244.86h2.88v1.91c.9-1.45,2.32-2.05,3.73-2.07v2.69c-1.04.02-3.73.18-3.73,3.2v4.85h-2.88v-10.58Z"/>
    <path class="st0" d="M331.61,250.15c0-3.2,2.12-5.45,5.02-5.45,1.33,0,2.32.48,3.04,1.29v-1.13h2.88v10.58h-2.88v-1.1c-.71.8-1.7,1.29-3.04,1.29-2.9,0-5.02-2.32-5.02-5.47ZM339.66,250.15c0-1.59-1.03-2.76-2.62-2.76s-2.65,1.17-2.65,2.76,1.06,2.76,2.65,2.76,2.62-1.17,2.62-2.76Z"/>
    <path class="st0" d="M345.07,244.86h2.88v1.01c.81-.87,1.93-1.17,2.97-1.17,1.91,0,4.12,1.04,4.12,4.28v6.46h-2.88v-6.03c0-1.86-1.31-2.3-2.12-2.3s-2.09.44-2.09,2.3v6.03h-2.88v-10.58Z"/>
    <path class="st0" d="M357.56,241.69c0-.99.81-1.52,1.59-1.52s1.59.53,1.59,1.52-.83,1.61-1.59,1.61-1.59-.6-1.59-1.61ZM357.69,244.86h2.9l-.02,10.58h-2.88v-10.58Z"/>
    <path class="st0" d="M363.26,244.86h2.88v1.01c.81-.87,1.93-1.17,2.97-1.17,1.91,0,4.12,1.04,4.12,4.28v6.46h-2.88v-6.03c0-1.86-1.31-2.3-2.12-2.3s-2.09.44-2.09,2.3v6.03h-2.88v-10.58Z"/>
    <path class="st0" d="M376.14,258.04l1.86-1.59c.83.87,1.82,1.08,2.62,1.08.99,0,2.78-.55,2.78-2.83v-.39c-.71.81-1.73,1.31-3.06,1.31-2.9,0-4.99-2.32-4.99-5.47s2.09-5.45,4.99-5.45c1.33,0,2.35.48,3.06,1.31v-1.15h2.88v9.85c0,3.04-2,5.24-5.66,5.24-1.91,0-3.52-.76-4.49-1.91ZM383.41,250.15c0-1.59-1.06-2.76-2.65-2.76s-2.62,1.17-2.62,2.76,1.04,2.76,2.62,2.76,2.65-1.17,2.65-2.76Z"/>
    <path class="st0" d="M393.19,247.97c0-4.44,3.11-7.66,7.55-7.66,2.65,0,4.76,1.15,6.05,3.01l-2.39,1.77c-.71-.99-2.02-1.82-3.66-1.82-2.74,0-4.58,1.98-4.58,4.69s1.84,4.69,4.58,4.69c1.63,0,2.94-.94,3.66-1.89l2.39,1.84c-1.29,1.86-3.4,3.01-6.05,3.01-4.44,0-7.55-3.22-7.55-7.66Z"/>
    <path class="st0" d="M407.91,250.15c0-3.15,2.07-5.5,5.27-5.5s5.08,2.35,5.08,5.5v.78h-7.59c.28,1.43,1.31,2.28,2.62,2.28,1.4,0,2.14-.64,2.51-1.13l1.96,1.43c-.92,1.33-2.53,2.16-4.46,2.16-3.24,0-5.38-2.37-5.38-5.52ZM415.57,249.12c-.25-1.24-1.03-2.19-2.39-2.19s-2.19.85-2.46,2.19h4.85Z"/>
    <path class="st0" d="M420.4,244.86h2.88v1.01c.81-.87,1.93-1.17,2.97-1.17,1.91,0,4.12,1.04,4.12,4.28v6.46h-2.88v-6.03c0-1.86-1.31-2.3-2.12-2.3s-2.09.44-2.09,2.3v6.03h-2.88v-10.58Z"/>
    <path class="st0" d="M433.39,252.38v-5.34h-1.38v-2.19h1.38v-3.24h2.88v3.24h2.25v2.19h-2.25v4.88c0,1.24.76,1.29,1.43,1.29h.71v2.23h-1.91c-2.12,0-3.11-1.1-3.11-3.06Z"/>
    <path class="st0" d="M439.81,250.15c0-3.15,2.07-5.5,5.27-5.5s5.08,2.35,5.08,5.5v.78h-7.59c.28,1.43,1.31,2.28,2.62,2.28,1.4,0,2.14-.64,2.51-1.13l1.96,1.43c-.92,1.33-2.53,2.16-4.46,2.16-3.24,0-5.38-2.37-5.38-5.52ZM447.47,249.12c-.25-1.24-1.03-2.19-2.39-2.19s-2.19.85-2.46,2.19h4.85Z"/>
    <path class="st0" d="M452.3,244.86h2.88v1.91c.9-1.45,2.32-2.05,3.73-2.07v2.69c-1.04.02-3.73.18-3.73,3.2v4.85h-2.88v-10.58Z"/>
  </g>
</svg>
